<svg
  aria-hidden="true"
  style="position: absolute; width: 0; height: 0; overflow: hidden;"
  version="1.1"
  xmlns="http://www.w3.org/2000/svg"
  xmlns:xlink="http://www.w3.org/1999/xlink"
>
<defs>
<symbol id="phonebook" viewBox="0 0 32 32">
<path
        d="M3.073 0v5.019h-1.842v1h1.842v5.986h-1.842v1h1.842v5.986h-1.842v1h1.842v5.986h-1.842v1h1.842v5.022h27.695v-32h-27.695zM8.393 31h-4.32v-4.022h0.994c0 0.001 0 0.001 0.001 0.002 0.18 0.345 0.54 0.585 0.96 0.585 0.6 0 1.085-0.49 1.085-1.085 0-0.6-0.485-1.090-1.085-1.090-0.419 0-0.783 0.239-0.964 0.588h-0.991v-5.986h0.991c0.18 0.344 0.545 0.583 0.964 0.583 0.6 0 1.085-0.485 1.085-1.085 0-0.595-0.485-1.085-1.085-1.085-0.42 0-0.78 0.24-0.96 0.585-0 0.001-0 0.001-0.001 0.002h-0.994v-5.986h0.995c0.18 0.35 0.54 0.585 0.96 0.585 0.6 0 1.085-0.485 1.085-1.085s-0.485-1.085-1.085-1.085c-0.42 0-0.78 0.235-0.96 0.585-0 0-0 0-0 0h-0.995v-5.986h0.99c0 0 0 0.001 0 0.001 0.18 0.345 0.545 0.585 0.965 0.585 0.6 0 1.085-0.485 1.085-1.085s-0.485-1.085-1.085-1.085c-0.42 0-0.784 0.24-0.964 0.584h-0.991v-4.019h4.32v30zM25.863 27.81h-5.615v-1h5.615v1zM13.503 25.195v-1h12.155v1h-12.155zM27.119 16.075c-0.635 2.895-0.52 2.43-0.675 2.91-0.28 0.875-1.25 1.325-2.1 0.975-5.54-2.28-9.94-6.69-12.21-12.235-0.365-0.905 0.18-1.92 1.13-2.13l2.765-0.605c0.495-0.11 1 0.14 1.22 0.595l1.070 2.27c0.22 0.455 0.090 1.005-0.305 1.315l-1.72 1.37c-0.145 0.11-0.175 0.32-0.070 0.465 1.335 1.895 2.985 3.545 4.875 4.88 0.15 0.105 0.355 0.075 0.47-0.070l1.365-1.72c0.315-0.4 0.86-0.525 1.315-0.31l2.275 1.075c0.455 0.215 0.705 0.72 0.595 1.215z"
      />
</symbol>
</defs>
</svg>
